<svg width="22" height="22" viewBox="0 0 22 22" fill="none" xmlns="http://www.w3.org/2000/svg">
<path d="M16.8819 18.2969C15.1231 19.4125 13.0826 20.0033 10.9999 19.9999C5.60791 19.9999 1.12191 16.1199 0.180908 10.9999C0.610938 8.67066 1.78254 6.54284 3.52091 4.93394L0.391908 1.80794L1.80691 0.392944L21.6059 20.1929L20.1909 21.6069L16.8809 18.2969H16.8819ZM4.93491 6.34994C3.57591 7.58553 2.62923 9.20873 2.22291 10.9999C2.5352 12.3664 3.16217 13.6411 4.05391 14.7225C4.94565 15.804 6.07753 16.6623 7.35946 17.2293C8.64139 17.7962 10.038 18.056 11.438 17.9881C12.838 17.9201 14.2029 17.5263 15.4239 16.8379L13.3959 14.8099C12.5326 15.3538 11.5101 15.588 10.4961 15.4744C9.48218 15.3607 8.53695 14.9058 7.81548 14.1844C7.09401 13.4629 6.63914 12.5177 6.52547 11.5037C6.4118 10.4897 6.64609 9.46725 7.18991 8.60394L4.93491 6.34994ZM11.9139 13.3279L8.67191 10.0859C8.49397 10.5389 8.4521 11.0339 8.55141 11.5103C8.65073 11.9867 8.88693 12.4237 9.23103 12.7678C9.57513 13.1119 10.0122 13.3481 10.4886 13.4474C10.965 13.5468 11.46 13.5049 11.9129 13.3269L11.9139 13.3279ZM19.8069 15.5919L18.3759 14.1619C19.0444 13.2092 19.5203 12.1351 19.7769 10.9999C19.5051 9.80967 18.9942 8.68709 18.2751 7.70044C17.5559 6.71379 16.6437 5.88367 15.5938 5.26055C14.5439 4.63743 13.3782 4.23431 12.1676 4.07571C10.9571 3.9171 9.72691 4.00632 8.55191 4.33794L6.97391 2.75994C8.22091 2.26994 9.57991 1.99994 10.9999 1.99994C16.3919 1.99994 20.8779 5.87994 21.8189 10.9999C21.5125 12.6656 20.8238 14.2375 19.8069 15.5919ZM10.7229 6.50794C11.3594 6.46861 11.997 6.56501 12.5935 6.79076C13.1899 7.01651 13.7315 7.36646 14.1825 7.81739C14.6334 8.26833 14.9833 8.80997 15.2091 9.4064C15.4348 10.0028 15.5312 10.6404 15.4919 11.2769L10.7219 6.50794H10.7229Z" fill="white"/>
</svg>
